<svg xmlns="http://www.w3.org/2000/svg" viewBox="0 0 256 256" role="img" aria-labelledby="title desc">
  <title id="title">Logo Raid</title>
  <desc id="desc">Un bouclier avec deux epees croisees representant un raid.</desc>
  <defs>
    <linearGradient id="bgRaid" x1="0%" y1="0%" x2="100%" y2="100%">
      <stop offset="0%" stop-color="#111827"/>
      <stop offset="100%" stop-color="#1f2937"/>
    </linearGradient>
    <linearGradient id="shield" x1="0%" y1="0%" x2="0%" y2="100%">
      <stop offset="0%" stop-color="#2563eb"/>
      <stop offset="100%" stop-color="#1d4ed8"/>
    </linearGradient>
  </defs>

  <rect x="8" y="8" width="240" height="240" rx="44" fill="url(#bgRaid)"/>

  <g transform="translate(128 130)">
    <g transform="rotate(-38)">
      <rect x="-6" y="-94" width="12" height="120" rx="6" fill="#cbd5e1"/>
      <rect x="-10" y="20" width="20" height="20" rx="4" fill="#94a3b8"/>
      <rect x="-18" y="38" width="36" height="12" rx="6" fill="#64748b"/>
    </g>
    <g transform="rotate(38)">
      <rect x="-6" y="-94" width="12" height="120" rx="6" fill="#cbd5e1"/>
      <rect x="-10" y="20" width="20" height="20" rx="4" fill="#94a3b8"/>
      <rect x="-18" y="38" width="36" height="12" rx="6" fill="#64748b"/>
    </g>
  </g>

  <path d="M128 42 C94 62 72 64 72 64 V122 C72 170 102 196 128 212 C154 196 184 170 184 122 V64 C184 64 162 62 128 42 Z"
        fill="url(#shield)" stroke="#93c5fd" stroke-width="6"/>

  <path d="M128 72 L142 106 L178 110 L151 132 L160 168 L128 148 L96 168 L105 132 L78 110 L114 106 Z"
        fill="#dbeafe" opacity="0.92"/>

  <circle cx="128" cy="126" r="7" fill="#1e3a8a"/>
</svg>
